<svg width="145" height="40" viewBox="0 0 145 40" fill="none" xmlns="http://www.w3.org/2000/svg">
<path d="M2 2.0586C37.4701 2.0586 72.9403 2.0586 108.41 2.0586C116.585 2.0586 124.797 1.713 132.93 2.70034C133.033 2.71284 144.507 4.49458 142.833 5.909C139.815 8.46005 132.67 8.47577 129.31 9.04635C118.685 10.8509 108.045 12.8984 97.3459 14.1802C84.8848 15.6731 72.1825 16.1767 59.6447 16.1767C57.0928 16.1767 36.8634 18.0427 37.6523 11.0429C38.1016 7.05537 73.5863 10.6196 77.5391 11.0429C85.3338 11.8775 92.3757 13.6229 98.507 18.7436C101.683 21.396 77.3986 34.12 74.0558 35.9991C73.6752 36.2131 68.3415 38.103 71.1189 37.9956C75.3482 37.8321 81.5522 35.6539 85.5984 34.1452C92.7698 31.4713 100.659 32.7546 107.727 30.2948" stroke="#DD394A" stroke-width="6" stroke-linecap="round" vector-effect="non-scaling-stroke"/>
</svg>
